<svg xmlns="http://www.w3.org/2000/svg" viewBox="0 0 245 72" role="img" aria-labelledby="titulo descricao">
  <title id="titulo">AACD</title>
  <desc id="descricao">Símbolo roxo de pessoas ao lado do texto AACD.</desc>
  <g fill="#4B00C8">
    <circle cx="18" cy="21" r="8"/>
    <circle cx="36" cy="16" r="10"/>
    <circle cx="54" cy="21" r="8"/>
    <path d="M3 54c0-12 7-20 16-20 5 0 9 2 12 6-4 5-6 11-6 19H3v-5Z"/>
    <path d="M22 59c0-17 6-28 14-28s14 11 14 28H22Z"/>
    <path d="M47 59c0-8-2-14-6-19 3-4 7-6 12-6 9 0 16 8 16 20v5H47Z"/>
  </g>
  <text x="84" y="49" fill="#171717" font-family="Arial, Helvetica, sans-serif" font-size="42" font-weight="700">AACD</text>
</svg>
